<svg width="15" height="7" viewBox="0 0 15 7" fill="none" xmlns="http://www.w3.org/2000/svg">
<path opacity="0.35" fill-rule="evenodd" clip-rule="evenodd" d="M2.07021 0.307571L12.0585 0.307571C12.7843 0.307571 13.3727 0.895978 13.3727 1.62182L13.3727 5.03885C13.3727 5.76469 12.7843 6.35309 12.0585 6.35309L2.07021 6.35309C1.34437 6.35309 0.755966 5.76469 0.755966 5.03885L0.755966 1.62182C0.755966 0.895978 1.34437 0.307571 2.07021 0.307571ZM2.0702 0.833271C1.6347 0.833271 1.28166 1.18631 1.28166 1.62182L1.28166 5.03885C1.28166 5.47435 1.6347 5.8274 2.0702 5.8274L12.0585 5.8274C12.494 5.8274 12.847 5.47435 12.847 5.03885L12.847 1.62182C12.847 1.18631 12.494 0.833271 12.0585 0.833271L2.0702 0.833271Z" fill="#374353"/>
<path opacity="0.4" fill-rule="evenodd" clip-rule="evenodd" d="M13.8984 2.04228C14.3665 2.28157 14.6869 2.76852 14.6869 3.33032C14.6869 3.89212 14.3665 4.37907 13.8984 4.61835L13.8984 2.04228Z" fill="#374353"/>
<path fill-rule="evenodd" clip-rule="evenodd" d="M2.33306 1.35898L11.7956 1.35898C12.0859 1.35898 12.3213 1.59434 12.3213 1.88468L12.3213 4.77601C12.3213 5.06635 12.0859 5.30171 11.7956 5.30171L2.33306 5.30171C2.04272 5.30171 1.80736 5.06635 1.80736 4.77601L1.80736 1.88468C1.80736 1.59434 2.04272 1.35898 2.33306 1.35898Z" fill="#374353"/>
</svg>
