<svg width="14" height="7" viewBox="0 0 14 7" fill="none" xmlns="http://www.w3.org/2000/svg">
<path opacity="0.35" fill-rule="evenodd" clip-rule="evenodd" d="M1.38327 0.893707L11.3715 0.893707C12.0974 0.893707 12.6858 1.48211 12.6858 2.20795L12.6858 5.62499C12.6858 6.35082 12.0974 6.93923 11.3715 6.93923L1.38327 6.93923C0.657438 6.93923 0.0690308 6.35082 0.0690308 5.62499L0.0690308 2.20795C0.0690308 1.48211 0.657438 0.893707 1.38327 0.893707ZM1.38327 1.41941C0.947764 1.41941 0.59472 1.77245 0.59472 2.20795L0.59472 5.62499C0.59472 6.06049 0.947764 6.41353 1.38327 6.41353L11.3715 6.41353C11.807 6.41353 12.1601 6.06049 12.1601 5.62499L12.1601 2.20795C12.1601 1.77245 11.807 1.41941 11.3715 1.41941L1.38327 1.41941Z" fill="white"/>
<path opacity="0.4" fill-rule="evenodd" clip-rule="evenodd" d="M13.2115 2.62842C13.6796 2.8677 14 3.35466 14 3.91645C14 4.47825 13.6796 4.9652 13.2115 5.20449L13.2115 2.62842Z" fill="white"/>
<path fill-rule="evenodd" clip-rule="evenodd" d="M1.64612 1.94511L11.1087 1.94511C11.399 1.94511 11.6344 2.18048 11.6344 2.47081L11.6344 5.36215C11.6344 5.65248 11.399 5.88785 11.1087 5.88785L1.64612 5.88785C1.35579 5.88785 1.12042 5.65248 1.12042 5.36215L1.12042 2.47081C1.12042 2.18048 1.35579 1.94511 1.64612 1.94511Z" fill="white"/>
</svg>
