<svg width="57" height="26" viewBox="0 0 57 26" fill="none" xmlns="http://www.w3.org/2000/svg">
<g filter="url(#filter0_ii)">
<path d="M13 6.00003L50 6.00003C53.866 6.00003 57 9.13404 57 13C57 16.866 53.866 20 50 20L13 20L13 6.00003Z" fill="#374353"/>
</g>
<g filter="url(#filter1_dd)">
<circle cx="13" cy="13" r="8" fill="white"/>
</g>
<path d="M28.9147 12.086L28.9147 15L28.5627 15C28.5107 15 28.4667 14.992 28.4307 14.976C28.396 14.9587 28.3613 14.9294 28.3267 14.888L26.9527 13.15C26.958 13.202 26.9613 13.2527 26.9627 13.302C26.9653 13.35 26.9667 13.3954 26.9667 13.438L26.9667 15L26.3707 15L26.3707 12.086L26.7267 12.086C26.756 12.086 26.7807 12.0874 26.8007 12.09C26.8207 12.0927 26.8387 12.098 26.8547 12.106C26.8707 12.1127 26.886 12.1227 26.9007 12.136C26.9153 12.1494 26.932 12.1674 26.9507 12.19L28.3367 13.94C28.33 13.884 28.3253 13.83 28.3227 13.778C28.32 13.7247 28.3187 13.6747 28.3187 13.628L28.3187 12.086L28.9147 12.086ZM30.36 15L29.68 15L29.68 12.086L30.36 12.086L30.36 15ZM32.5222 13.49L33.5582 13.49L33.5582 14.72C33.4089 14.8294 33.2496 14.9087 33.0802 14.958C32.9122 15.0074 32.7362 15.032 32.5522 15.032C32.3122 15.032 32.0936 14.9947 31.8962 14.92C31.7002 14.844 31.5322 14.74 31.3922 14.608C31.2522 14.4747 31.1442 14.3174 31.0682 14.136C30.9922 13.9534 30.9542 13.7554 30.9542 13.542C30.9542 13.3247 30.9902 13.1254 31.0622 12.944C31.1342 12.7614 31.2369 12.604 31.3702 12.472C31.5049 12.34 31.6669 12.2374 31.8562 12.164C32.0469 12.0907 32.2596 12.054 32.4942 12.054C32.6156 12.054 32.7296 12.064 32.8362 12.084C32.9429 12.104 33.0409 12.1314 33.1302 12.166C33.2209 12.2007 33.3036 12.242 33.3782 12.29C33.4529 12.338 33.5196 12.39 33.5782 12.446L33.3822 12.744C33.3516 12.7907 33.3116 12.8194 33.2622 12.83C33.2142 12.8407 33.1622 12.8287 33.1062 12.794C33.0529 12.762 33.0022 12.7347 32.9542 12.712C32.9076 12.688 32.8596 12.6687 32.8102 12.654C32.7609 12.6394 32.7089 12.6287 32.6542 12.622C32.5996 12.6154 32.5382 12.612 32.4702 12.612C32.3436 12.612 32.2296 12.6347 32.1282 12.68C32.0269 12.724 31.9402 12.7867 31.8682 12.868C31.7976 12.9494 31.7429 13.0474 31.7042 13.162C31.6656 13.2754 31.6462 13.402 31.6462 13.542C31.6462 13.6967 31.6676 13.834 31.7102 13.954C31.7529 14.074 31.8129 14.1754 31.8902 14.258C31.9689 14.3407 32.0622 14.404 32.1702 14.448C32.2796 14.4907 32.4002 14.512 32.5322 14.512C32.6136 14.512 32.6869 14.504 32.7522 14.488C32.8189 14.472 32.8836 14.4507 32.9462 14.424L32.9462 13.982L32.6582 13.982C32.6156 13.982 32.5822 13.9707 32.5582 13.948C32.5342 13.9254 32.5222 13.8967 32.5222 13.862L32.5222 13.49ZM36.7569 12.086L36.7569 15L36.0769 15L36.0769 13.768L34.8929 13.768L34.8929 15L34.2129 15L34.2129 12.086L34.8929 12.086L34.8929 13.304L36.0769 13.304L36.0769 12.086L36.7569 12.086ZM39.6162 12.622L38.7962 12.622L38.7962 15L38.1202 15L38.1202 12.622L37.3002 12.622L37.3002 12.086L39.6162 12.086L39.6162 12.622ZM43.4357 12.086L43.4357 15L42.8397 15L42.8397 13.324C42.8397 13.2854 42.8404 13.2434 42.8417 13.198C42.8444 13.1527 42.8484 13.1067 42.8537 13.06L42.0797 14.558C42.0557 14.6047 42.0231 14.64 41.9817 14.664C41.9417 14.688 41.8957 14.7 41.8437 14.7L41.7517 14.7C41.6997 14.7 41.6531 14.688 41.6117 14.664C41.5717 14.64 41.5397 14.6047 41.5157 14.558L40.7417 13.056C40.7457 13.104 40.7491 13.1514 40.7517 13.198C40.7544 13.2434 40.7557 13.2854 40.7557 13.324L40.7557 15L40.1597 15L40.1597 12.086L40.6757 12.086C40.7051 12.086 40.7304 12.0867 40.7517 12.088C40.7744 12.0894 40.7944 12.0934 40.8117 12.1C40.8291 12.1067 40.8444 12.1174 40.8577 12.132C40.8724 12.1454 40.8864 12.1647 40.8997 12.19L41.6497 13.668C41.6764 13.7187 41.7017 13.7714 41.7257 13.826C41.7511 13.8807 41.7751 13.9367 41.7977 13.994C41.8204 13.9354 41.8437 13.878 41.8677 13.822C41.8931 13.766 41.9197 13.7127 41.9477 13.662L42.6957 12.19C42.7091 12.1647 42.7224 12.1454 42.7357 12.132C42.7504 12.1174 42.7664 12.1067 42.7837 12.1C42.8011 12.0934 42.8204 12.0894 42.8417 12.088C42.8644 12.0867 42.8904 12.086 42.9197 12.086L43.4357 12.086ZM47.0596 13.542C47.0596 13.7527 47.0229 13.9487 46.9496 14.13C46.8776 14.3114 46.7756 14.4694 46.6436 14.604C46.5116 14.7374 46.3522 14.842 46.1656 14.918C45.9802 14.994 45.7742 15.032 45.5476 15.032C45.3209 15.032 45.1142 14.994 44.9276 14.918C44.7409 14.842 44.5809 14.7374 44.4476 14.604C44.3156 14.4694 44.2129 14.3114 44.1396 14.13C44.0676 13.9487 44.0316 13.7527 44.0316 13.542C44.0316 13.3314 44.0676 13.1354 44.1396 12.954C44.2129 12.7727 44.3156 12.6154 44.4476 12.482C44.5809 12.3487 44.7409 12.244 44.9276 12.168C45.1142 12.092 45.3209 12.054 45.5476 12.054C45.7742 12.054 45.9802 12.0927 46.1656 12.17C46.3522 12.246 46.5116 12.3507 46.6436 12.484C46.7756 12.6174 46.8776 12.7747 46.9496 12.956C47.0229 13.1374 47.0596 13.3327 47.0596 13.542ZM46.3676 13.542C46.3676 13.398 46.3489 13.2687 46.3116 13.154C46.2742 13.038 46.2202 12.94 46.1496 12.86C46.0802 12.78 45.9949 12.7187 45.8936 12.676C45.7922 12.6334 45.6769 12.612 45.5476 12.612C45.4169 12.612 45.3002 12.6334 45.1976 12.676C45.0962 12.7187 45.0102 12.78 44.9396 12.86C44.8702 12.94 44.8169 13.038 44.7796 13.154C44.7422 13.2687 44.7236 13.398 44.7236 13.542C44.7236 13.6874 44.7422 13.818 44.7796 13.934C44.8169 14.0487 44.8702 14.146 44.9396 14.226C45.0102 14.306 45.0962 14.3674 45.1976 14.41C45.3002 14.4514 45.4169 14.472 45.5476 14.472C45.6769 14.472 45.7922 14.4514 45.8936 14.41C45.9949 14.3674 46.0802 14.306 46.1496 14.226C46.2202 14.146 46.2742 14.0487 46.3116 13.934C46.3489 13.818 46.3676 13.6874 46.3676 13.542ZM50.3014 13.542C50.3014 13.7527 50.2647 13.9474 50.1914 14.126C50.1194 14.3034 50.0174 14.4574 49.8854 14.588C49.7534 14.7174 49.5941 14.8187 49.4074 14.892C49.2221 14.964 49.0161 15 48.7894 15L47.6574 15L47.6574 12.086L48.7894 12.086C49.0161 12.086 49.2221 12.1227 49.4074 12.196C49.5941 12.2694 49.7534 12.3707 49.8854 12.5C50.0174 12.6294 50.1194 12.7834 50.1914 12.962C50.2647 13.1394 50.3014 13.3327 50.3014 13.542ZM49.6094 13.542C49.6094 13.398 49.5907 13.268 49.5534 13.152C49.5161 13.036 49.4621 12.938 49.3914 12.858C49.3221 12.7767 49.2367 12.7147 49.1354 12.672C49.0341 12.628 48.9187 12.606 48.7894 12.606L48.3374 12.606L48.3374 14.48L48.7894 14.48C48.9187 14.48 49.0341 14.4587 49.1354 14.416C49.2367 14.372 49.3221 14.31 49.3914 14.23C49.4621 14.1487 49.5161 14.05 49.5534 13.934C49.5907 13.818 49.6094 13.6874 49.6094 13.542ZM51.5804 12.606L51.5804 13.286L52.4964 13.286L52.4964 13.786L51.5804 13.786L51.5804 14.48L52.7764 14.48L52.7764 15L50.9004 15L50.9004 12.086L52.7764 12.086L52.7764 12.606L51.5804 12.606Z" fill="white"/>
<path d="M17.5 13.395C17.4213 14.2461 17.1019 15.0572 16.5791 15.7334C16.0563 16.4096 15.3517 16.9229 14.5478 17.2133C13.744 17.5037 12.874 17.5591 12.0397 17.3731C11.2055 17.1871 10.4415 16.7673 9.83711 16.1629C9.23272 15.5585 8.81297 14.7945 8.62695 13.9603C8.44093 13.126 8.49635 12.2561 8.78673 11.4522C9.0771 10.6483 9.59041 9.94371 10.2666 9.42091C10.9428 8.8981 11.7539 8.57868 12.605 8.50003C12.1067 9.17416 11.8669 10.0048 11.9293 10.8407C11.9916 11.6767 12.3519 12.4626 12.9447 13.0553C13.5375 13.6481 14.3233 14.0084 15.1593 14.0708C15.9953 14.1331 16.8104 14.0362 17.4845 13.5379L17.5 13.395Z" stroke="#374353" stroke-linecap="round" stroke-linejoin="round"/>
<defs>
<filter id="filter0_ii" x="10.7391" y="3.73916" width="48.5217" height="18.5217" filterUnits="userSpaceOnUse" color-interpolation-filters="sRGB">
<feFlood flood-opacity="0" result="BackgroundImageFix"/>
<feBlend mode="normal" in="SourceGraphic" in2="BackgroundImageFix" result="shape"/>
<feColorMatrix in="SourceAlpha" type="matrix" values="0 0 0 0 0 0 0 0 0 0 0 0 0 0 0 0 0 0 127 0" result="hardAlpha"/>
<feOffset dx="-2.26087" dy="-2.26087"/>
<feGaussianBlur stdDeviation="1.13043"/>
<feComposite in2="hardAlpha" operator="arithmetic" k2="-1" k3="1"/>
<feColorMatrix type="matrix" values="0 0 0 0 0.223529 0 0 0 0 0.27451 0 0 0 0 0.337255 0 0 0 1 0"/>
<feBlend mode="normal" in2="shape" result="effect1_innerShadow"/>
<feColorMatrix in="SourceAlpha" type="matrix" values="0 0 0 0 0 0 0 0 0 0 0 0 0 0 0 0 0 0 127 0" result="hardAlpha"/>
<feOffset dx="2.26087" dy="2.26087"/>
<feGaussianBlur stdDeviation="1.13043"/>
<feComposite in2="hardAlpha" operator="arithmetic" k2="-1" k3="1"/>
<feColorMatrix type="matrix" values="0 0 0 0 0.192157 0 0 0 0 0.239216 0 0 0 0 0.305882 0 0 0 1 0"/>
<feBlend mode="normal" in2="effect1_innerShadow" result="effect2_innerShadow"/>
</filter>
<filter id="filter1_dd" x="0.478261" y="0.478292" width="25.0435" height="25.0435" filterUnits="userSpaceOnUse" color-interpolation-filters="sRGB">
<feFlood flood-opacity="0" result="BackgroundImageFix"/>
<feColorMatrix in="SourceAlpha" type="matrix" values="0 0 0 0 0 0 0 0 0 0 0 0 0 0 0 0 0 0 127 0"/>
<feOffset dx="2.26087" dy="2.26087"/>
<feGaussianBlur stdDeviation="1.13043"/>
<feColorMatrix type="matrix" values="0 0 0 0 0.207843 0 0 0 0 0.25098 0 0 0 0 0.313726 0 0 0 1 0"/>
<feBlend mode="normal" in2="BackgroundImageFix" result="effect1_dropShadow"/>
<feColorMatrix in="SourceAlpha" type="matrix" values="0 0 0 0 0 0 0 0 0 0 0 0 0 0 0 0 0 0 127 0"/>
<feOffset dx="-2.26087" dy="-2.26087"/>
<feGaussianBlur stdDeviation="1.13043"/>
<feColorMatrix type="matrix" values="0 0 0 0 0.190371 0 0 0 0 0.239498 0 0 0 0 0.305 0 0 0 1 0"/>
<feBlend mode="normal" in2="effect1_dropShadow" result="effect2_dropShadow"/>
<feBlend mode="normal" in="SourceGraphic" in2="effect2_dropShadow" result="shape"/>
</filter>
</defs>
</svg>
