<svg width="57" height="26" viewBox="0 0 57 26" fill="none" xmlns="http://www.w3.org/2000/svg">
<g filter="url(#filter0_ii)">
<path d="M12.6869 6.41389L49.6869 6.41389C53.5529 6.41389 56.6869 9.5479 56.6869 13.4139C56.6869 17.2799 53.5529 20.4139 49.6869 20.4139L12.6869 20.4139L12.6869 6.41389Z" fill="#FAFBFF"/>
</g>
<g filter="url(#filter1_dd)">
<circle cx="12.6869" cy="13.4139" r="8" fill="white"/>
</g>
<g clip-path="url(#clip0)">
<path d="M12.6869 15.9139C14.0676 15.9139 15.1869 14.7946 15.1869 13.4139C15.1869 12.0332 14.0676 10.9139 12.6869 10.9139C11.3062 10.9139 10.1869 12.0332 10.1869 13.4139C10.1869 14.7946 11.3062 15.9139 12.6869 15.9139Z" stroke="#006FF1" stroke-width="0.916667" stroke-linecap="round" stroke-linejoin="round"/>
<path d="M12.6869 7.91389L12.6869 8.91389" stroke="#006FF1" stroke-width="0.916667" stroke-linecap="round" stroke-linejoin="round"/>
<path d="M12.6869 17.9139L12.6869 18.9139" stroke="#006FF1" stroke-width="0.916667" stroke-linecap="round" stroke-linejoin="round"/>
<path d="M8.79694 9.5239L9.50694 10.2339" stroke="#006FF1" stroke-width="0.916667" stroke-linecap="round" stroke-linejoin="round"/>
<path d="M15.8669 16.5939L16.5769 17.3039" stroke="#006FF1" stroke-width="0.916667" stroke-linecap="round" stroke-linejoin="round"/>
<path d="M7.18694 13.4139L8.18694 13.4139" stroke="#006FF1" stroke-width="0.916667" stroke-linecap="round" stroke-linejoin="round"/>
<path d="M17.1869 13.4139L18.1869 13.4139" stroke="#006FF1" stroke-width="0.916667" stroke-linecap="round" stroke-linejoin="round"/>
<path d="M8.79694 17.3039L9.50694 16.5939" stroke="#006FF1" stroke-width="0.916667" stroke-linecap="round" stroke-linejoin="round"/>
<path d="M15.8669 10.2339L16.5769 9.5239" stroke="#006FF1" stroke-width="0.916667" stroke-linecap="round" stroke-linejoin="round"/>
</g>
<path d="M30.7219 13.9559C30.7219 14.1666 30.6853 14.3612 30.6119 14.5399C30.5399 14.7172 30.4379 14.8712 30.3059 15.0019C30.1739 15.1312 30.0146 15.2326 29.8279 15.3059C29.6426 15.3779 29.4366 15.4139 29.2099 15.4139L28.0779 15.4139L28.0779 12.4999L29.2099 12.4999C29.4366 12.4999 29.6426 12.5366 29.8279 12.6099C30.0146 12.6832 30.1739 12.7846 30.3059 12.9139C30.4379 13.0432 30.5399 13.1972 30.6119 13.3759C30.6853 13.5532 30.7219 13.7466 30.7219 13.9559ZM30.0299 13.9559C30.0299 13.8119 30.0113 13.6819 29.9739 13.5659C29.9366 13.4499 29.8826 13.3519 29.8119 13.2719C29.7426 13.1906 29.6573 13.1286 29.5559 13.0859C29.4546 13.0419 29.3393 13.0199 29.2099 13.0199L28.7579 13.0199L28.7579 14.8939L29.2099 14.8939C29.3393 14.8939 29.4546 14.8726 29.5559 14.8299C29.6573 14.7859 29.7426 14.7239 29.8119 14.6439C29.8826 14.5626 29.9366 14.4639 29.9739 14.3479C30.0113 14.2319 30.0299 14.1012 30.0299 13.9559ZM32.7593 14.2999L32.4893 13.5019C32.4693 13.4512 32.448 13.3919 32.4253 13.3239C32.4027 13.2546 32.38 13.1799 32.3573 13.0999C32.3373 13.1812 32.316 13.2566 32.2933 13.3259C32.2707 13.3952 32.2493 13.4552 32.2293 13.5059L31.9613 14.2999L32.7593 14.2999ZM33.8333 15.4139L33.3093 15.4139C33.2507 15.4139 33.2033 15.4006 33.1673 15.3739C33.1313 15.3459 33.104 15.3106 33.0853 15.2679L32.9133 14.7599L31.8053 14.7599L31.6333 15.2679C31.6187 15.3052 31.592 15.3392 31.5533 15.3699C31.516 15.3992 31.4693 15.4139 31.4133 15.4139L30.8853 15.4139L32.0133 12.4999L32.7053 12.4999L33.8333 15.4139ZM35.3427 14.3059L35.3427 15.4139L34.6667 15.4139L34.6667 14.3059L33.6107 12.4999L34.2067 12.4999C34.2653 12.4999 34.3113 12.5139 34.3447 12.5419C34.3793 12.5686 34.408 12.6032 34.4307 12.6459L34.8427 13.4939C34.8773 13.5606 34.9087 13.6232 34.9367 13.6819C34.9647 13.7392 34.9893 13.7959 35.0107 13.8519C35.0307 13.7946 35.0533 13.7372 35.0787 13.6799C35.1053 13.6212 35.136 13.5592 35.1707 13.4939L35.5787 12.6459C35.588 12.6286 35.5993 12.6112 35.6127 12.5939C35.626 12.5766 35.6413 12.5612 35.6587 12.5479C35.6773 12.5332 35.698 12.5219 35.7207 12.5139C35.7447 12.5046 35.7707 12.4999 35.7987 12.4999L36.3987 12.4999L35.3427 14.3059ZM40.1024 12.4999L40.1024 15.4139L39.5064 15.4139L39.5064 13.7379C39.5064 13.6992 39.507 13.6572 39.5084 13.6119C39.511 13.5666 39.515 13.5206 39.5204 13.4739L38.7464 14.9719C38.7224 15.0186 38.6897 15.0539 38.6484 15.0779C38.6084 15.1019 38.5624 15.1139 38.5104 15.1139L38.4184 15.1139C38.3664 15.1139 38.3197 15.1019 38.2784 15.0779C38.2384 15.0539 38.2064 15.0186 38.1824 14.9719L37.4084 13.4699C37.4124 13.5179 37.4157 13.5652 37.4184 13.6119C37.421 13.6572 37.4224 13.6992 37.4224 13.7379L37.4224 15.4139L36.8264 15.4139L36.8264 12.4999L37.3424 12.4999C37.3717 12.4999 37.397 12.5006 37.4184 12.5019C37.441 12.5032 37.461 12.5072 37.4784 12.5139C37.4957 12.5206 37.511 12.5312 37.5244 12.5459C37.539 12.5592 37.553 12.5786 37.5664 12.6039L38.3164 14.0819C38.343 14.1326 38.3684 14.1852 38.3924 14.2399C38.4177 14.2946 38.4417 14.3506 38.4644 14.4079C38.487 14.3492 38.5104 14.2919 38.5344 14.2359C38.5597 14.1799 38.5864 14.1266 38.6144 14.0759L39.3624 12.6039C39.3757 12.5786 39.389 12.5592 39.4024 12.5459C39.417 12.5312 39.433 12.5206 39.4504 12.5139C39.4677 12.5072 39.487 12.5032 39.5084 12.5019C39.531 12.5006 39.557 12.4999 39.5864 12.4999L40.1024 12.4999ZM43.7262 13.9559C43.7262 14.1666 43.6895 14.3626 43.6162 14.5439C43.5442 14.7252 43.4422 14.8832 43.3102 15.0179C43.1782 15.1512 43.0189 15.2559 42.8322 15.3319C42.6469 15.4079 42.4409 15.4459 42.2142 15.4459C41.9875 15.4459 41.7809 15.4079 41.5942 15.3319C41.4075 15.2559 41.2475 15.1512 41.1142 15.0179C40.9822 14.8832 40.8795 14.7252 40.8062 14.5439C40.7342 14.3626 40.6982 14.1666 40.6982 13.9559C40.6982 13.7452 40.7342 13.5492 40.8062 13.3679C40.8795 13.1866 40.9822 13.0292 41.1142 12.8959C41.2475 12.7626 41.4075 12.6579 41.5942 12.5819C41.7809 12.5059 41.9875 12.4679 42.2142 12.4679C42.4409 12.4679 42.6469 12.5066 42.8322 12.5839C43.0189 12.6599 43.1782 12.7646 43.3102 12.8979C43.4422 13.0312 43.5442 13.1886 43.6162 13.3699C43.6895 13.5512 43.7262 13.7466 43.7262 13.9559ZM43.0342 13.9559C43.0342 13.8119 43.0155 13.6826 42.9782 13.5679C42.9409 13.4519 42.8869 13.3539 42.8162 13.2739C42.7469 13.1939 42.6615 13.1326 42.5602 13.0899C42.4589 13.0472 42.3435 13.0259 42.2142 13.0259C42.0835 13.0259 41.9669 13.0472 41.8642 13.0899C41.7629 13.1326 41.6769 13.1939 41.6062 13.2739C41.5369 13.3539 41.4835 13.4519 41.4462 13.5679C41.4089 13.6826 41.3902 13.8119 41.3902 13.9559C41.3902 14.1012 41.4089 14.2319 41.4462 14.3479C41.4835 14.4626 41.5369 14.5599 41.6062 14.6399C41.6769 14.7199 41.7629 14.7812 41.8642 14.8239C41.9669 14.8652 42.0835 14.8859 42.2142 14.8859C42.3435 14.8859 42.4589 14.8652 42.5602 14.8239C42.6615 14.7812 42.7469 14.7199 42.8162 14.6399C42.8869 14.5599 42.9409 14.4626 42.9782 14.3479C43.0155 14.2319 43.0342 14.1012 43.0342 13.9559ZM46.968 13.9559C46.968 14.1666 46.9313 14.3612 46.858 14.5399C46.786 14.7172 46.684 14.8712 46.552 15.0019C46.42 15.1312 46.2607 15.2326 46.074 15.3059C45.8887 15.3779 45.6827 15.4139 45.456 15.4139L44.324 15.4139L44.324 12.4999L45.456 12.4999C45.6827 12.4999 45.8887 12.5366 46.074 12.6099C46.2607 12.6832 46.42 12.7846 46.552 12.9139C46.684 13.0432 46.786 13.1972 46.858 13.3759C46.9313 13.5532 46.968 13.7466 46.968 13.9559ZM46.276 13.9559C46.276 13.8119 46.2573 13.6819 46.22 13.5659C46.1827 13.4499 46.1287 13.3519 46.058 13.2719C45.9887 13.1906 45.9033 13.1286 45.802 13.0859C45.7007 13.0419 45.5853 13.0199 45.456 13.0199L45.004 13.0199L45.004 14.8939L45.456 14.8939C45.5853 14.8939 45.7007 14.8726 45.802 14.8299C45.9033 14.7859 45.9887 14.7239 46.058 14.6439C46.1287 14.5626 46.1827 14.4639 46.22 14.3479C46.2573 14.2319 46.276 14.1012 46.276 13.9559ZM48.247 13.0199L48.247 13.6999L49.163 13.6999L49.163 14.1999L48.247 14.1999L48.247 14.8939L49.443 14.8939L49.443 15.4139L47.567 15.4139L47.567 12.4999L49.443 12.4999L49.443 13.0199L48.247 13.0199Z" fill="#006FF1"/>
<defs>
<filter id="filter0_ii" x="10.4261" y="4.15303" width="48.5217" height="18.5217" filterUnits="userSpaceOnUse" color-interpolation-filters="sRGB">
<feFlood flood-opacity="0" result="BackgroundImageFix"/>
<feBlend mode="normal" in="SourceGraphic" in2="BackgroundImageFix" result="shape"/>
<feColorMatrix in="SourceAlpha" type="matrix" values="0 0 0 0 0 0 0 0 0 0 0 0 0 0 0 0 0 0 127 0" result="hardAlpha"/>
<feOffset dx="-2.26087" dy="-2.26087"/>
<feGaussianBlur stdDeviation="1.13043"/>
<feComposite in2="hardAlpha" operator="arithmetic" k2="-1" k3="1"/>
<feColorMatrix type="matrix" values="0 0 0 0 1 0 0 0 0 1 0 0 0 0 1 0 0 0 1 0"/>
<feBlend mode="normal" in2="shape" result="effect1_innerShadow"/>
<feColorMatrix in="SourceAlpha" type="matrix" values="0 0 0 0 0 0 0 0 0 0 0 0 0 0 0 0 0 0 127 0" result="hardAlpha"/>
<feOffset dx="2.26087" dy="2.26087"/>
<feGaussianBlur stdDeviation="1.13043"/>
<feComposite in2="hardAlpha" operator="arithmetic" k2="-1" k3="1"/>
<feColorMatrix type="matrix" values="0 0 0 0 0.92 0 0 0 0 0.936 0 0 0 0 1 0 0 0 1 0"/>
<feBlend mode="normal" in2="effect1_innerShadow" result="effect2_innerShadow"/>
</filter>
<filter id="filter1_dd" x="0.165196" y="0.892156" width="25.0435" height="25.0435" filterUnits="userSpaceOnUse" color-interpolation-filters="sRGB">
<feFlood flood-opacity="0" result="BackgroundImageFix"/>
<feColorMatrix in="SourceAlpha" type="matrix" values="0 0 0 0 0 0 0 0 0 0 0 0 0 0 0 0 0 0 127 0"/>
<feOffset dx="2.26087" dy="2.26087"/>
<feGaussianBlur stdDeviation="1.13043"/>
<feColorMatrix type="matrix" values="0 0 0 0 0.92 0 0 0 0 0.936 0 0 0 0 1 0 0 0 1 0"/>
<feBlend mode="normal" in2="BackgroundImageFix" result="effect1_dropShadow"/>
<feColorMatrix in="SourceAlpha" type="matrix" values="0 0 0 0 0 0 0 0 0 0 0 0 0 0 0 0 0 0 127 0"/>
<feOffset dx="-2.26087" dy="-2.26087"/>
<feGaussianBlur stdDeviation="1.13043"/>
<feColorMatrix type="matrix" values="0 0 0 0 0.980392 0 0 0 0 0.984314 0 0 0 0 1 0 0 0 1 0"/>
<feBlend mode="normal" in2="effect1_dropShadow" result="effect2_dropShadow"/>
<feBlend mode="normal" in="SourceGraphic" in2="effect2_dropShadow" result="shape"/>
</filter>
<clipPath id="clip0">
<rect width="12" height="12" fill="white" transform="translate(6.68694 7.41389)"/>
</clipPath>
</defs>
</svg>
