<svg width="12" height="8" viewBox="0 0 12 8" fill="none" xmlns="http://www.w3.org/2000/svg">
<path opacity="0.25" fill-rule="evenodd" clip-rule="evenodd" d="M8.674 1.05142L9.1997 1.05142C9.49003 1.05142 9.72539 1.28678 9.72539 1.57712L9.72539 5.7827C9.72539 6.07303 9.49003 6.3084 9.1997 6.3084L8.674 6.3084C8.38366 6.3084 8.1483 6.07303 8.1483 5.7827L8.1483 1.57712C8.1483 1.28678 8.38366 1.05142 8.674 1.05142Z" fill="white"/>
<path fill-rule="evenodd" clip-rule="evenodd" d="M6.83408 2.10283L6.30839 2.10283C6.01805 2.10283 5.78269 2.33819 5.78269 2.62853L5.78269 5.78271C5.78269 6.07305 6.01805 6.30841 6.30839 6.30841L6.83408 6.30841C7.12442 6.30841 7.35978 6.07305 7.35978 5.78271L7.35978 2.62853C7.35978 2.33819 7.12442 2.10283 6.83408 2.10283ZM3.94272 3.15422L4.46842 3.15422C4.75875 3.15422 4.99411 3.38958 4.99411 3.67991L4.99411 5.7827C4.99411 6.07304 4.75875 6.3084 4.46842 6.3084L3.94272 6.3084C3.65238 6.3084 3.41702 6.07304 3.41702 5.7827L3.41702 3.67991C3.41702 3.38958 3.65238 3.15422 3.94272 3.15422ZM1.5771 3.94277L2.1028 3.94277C2.39314 3.94277 2.6285 4.17813 2.6285 4.46847L2.6285 5.78271C2.6285 6.07304 2.39314 6.30841 2.1028 6.30841L1.5771 6.30841C1.28677 6.30841 1.05141 6.07304 1.05141 5.78271L1.05141 4.46847C1.05141 4.17813 1.28677 3.94277 1.5771 3.94277Z" fill="white"/>
</svg>
