<svg width="12" height="8" viewBox="0 0 12 8" fill="none" xmlns="http://www.w3.org/2000/svg">
<path opacity="0.25" fill-rule="evenodd" clip-rule="evenodd" d="M9.36093 1.46529L9.88663 1.46529C10.177 1.46529 10.4123 1.70065 10.4123 1.99098L10.4123 6.19656C10.4123 6.4869 10.177 6.72226 9.88663 6.72226L9.36093 6.72226C9.0706 6.72226 8.83524 6.4869 8.83524 6.19656L8.83524 1.99098C8.83524 1.70065 9.0706 1.46529 9.36093 1.46529Z" fill="#374353"/>
<path fill-rule="evenodd" clip-rule="evenodd" d="M7.52101 2.51669L6.99531 2.51669C6.70498 2.51669 6.46962 2.75206 6.46962 3.04239L6.46962 6.19658C6.46962 6.48691 6.70498 6.72227 6.99531 6.72227L7.52101 6.72227C7.81135 6.72227 8.04671 6.48691 8.04671 6.19658L8.04671 3.04239C8.04671 2.75206 7.81135 2.51669 7.52101 2.51669ZM4.62965 3.56808L5.15534 3.56808C5.44568 3.56808 5.68104 3.80344 5.68104 4.09378L5.68104 6.19657C5.68104 6.4869 5.44568 6.72227 5.15534 6.72227L4.62965 6.72227C4.33931 6.72227 4.10395 6.4869 4.10395 6.19657L4.10395 4.09378C4.10395 3.80344 4.33931 3.56808 4.62965 3.56808ZM2.26403 4.35663L2.78973 4.35663C3.08006 4.35663 3.31543 4.592 3.31543 4.88233L3.31543 6.19657C3.31543 6.48691 3.08006 6.72227 2.78973 6.72227L2.26403 6.72227C1.9737 6.72227 1.73833 6.48691 1.73833 6.19657L1.73833 4.88233C1.73833 4.592 1.9737 4.35663 2.26403 4.35663Z" fill="#374353"/>
</svg>
